<svg xmlns="http://www.w3.org/2000/svg" id="meeting" version="1.1" viewBox="0 0 64 64">
  <path d="M53.89 39.75c.68-.72 1.11-1.68 1.11-2.75 0-2.21-1.79-4-4-4s-4 1.79-4 4c0 1.07.43 2.03 1.11 2.75-1.85 1.02-3.11 2.99-3.11 5.25h-3c-1.65 0-3 1.35-3 3 0 .35.07.69.18 1h-14.36c.11-.31.18-.65.18-1 0-1.65-1.35-3-3-3h-3c0-2.26-1.26-4.23-3.11-5.25.68-.72 1.11-1.68 1.11-2.75 0-2.21-1.79-4-4-4s-4 1.79-4 4c0 1.07.43 2.03 1.11 2.75-1.85 1.02-3.11 2.99-3.11 5.25v11c0 .55.45 1 1 1h48c.55 0 1-.45 1-1v-11c0-2.26-1.26-4.23-3.11-5.25ZM51 35c1.1 0 2 .9 2 2s-.9 2-2 2-2-.9-2-2 .9-2 2-2ZM13 35c1.1 0 2 .9 2 2s-.9 2-2 2-2-.9-2-2 .9-2 2-2ZM17 55h-8v-10c0-2.21 1.79-4 4-4s4 1.79 4 4v1c0 .55.45 1 1 1h4c.55 0 1 .45 1 1s-.45 1-1 1h-7c-1.1 0-2-.9-2-2 0-.55-.45-1-1-1s-1 .45-1 1c0 2.21 1.79 4 4 4h2v4ZM45 55h-26v-4h26v4ZM55 55h-8v-4h2c2.21 0 4-1.79 4-4 0-.55-.45-1-1-1s-1 .45-1 1c0 1.1-.9 2-2 2h-7c-.55 0-1-.45-1-1s.45-1 1-1h4c.55 0 1-.45 1-1v-1c0-2.21 1.79-4 4-4s4 1.79 4 4v10ZM45 9h-4v-1c0-.55-.45-1-1-1s-1 .45-1 1v1h-6v-1c0-.55-.45-1-1-1s-1 .45-1 1v1h-6v-1c0-.55-.45-1-1-1s-1 .45-1 1v1h-4c-1.65 0-3 1.35-3 3v18c0 1.65 1.35 3 3 3h26c1.65 0 3-1.35 3-3V12c0-1.65-1.35-3-3-3ZM46 30c0 .55-.45 1-1 1h-26c-.55 0-1-.45-1-1v-15h28v15ZM46 13h-28v-1c0-.55.45-1 1-1h26c.55 0 1 .45 1 1v1Z"></path>
  <path d="M43,17h-22c-.55,0-1,.45-1,1v10c0,.55.45,1,1,1h22c.55,0,1-.45,1-1v-10c0-.55-.45-1-1-1ZM27,27h-5v-3h5v3ZM27,22h-5v-3h5v3ZM35,27h-6v-3h6v3ZM35,22h-6v-3h6v3ZM42,27h-5v-3h5v3ZM42,22h-5v-3h5v3Z"></path>
</svg>
