<svg xmlns="http://www.w3.org/2000/svg" width="24" height="24" fill="none" viewBox="0 0 24 24" id="link">
  <path fill="#000" fill-rule="evenodd" d="M7.08547 10.6916C7.37836 10.9845 7.37836 11.4594 7.08547 11.7523L4.75247 14.0853C3.32745 15.5103 3.32723 17.8216 4.75262 19.2478 6.17761 20.6726 8.48862 20.6728 9.91481 19.2476L12.2478 16.9146C12.5407 16.6217 13.0156 16.6217 13.3085 16.9146 13.6014 17.2075 13.6014 17.6824 13.3085 17.9753L10.9755 20.3083C8.9637 22.3189 5.70279 22.3193 3.69181 20.3083 1.68121 18.2965 1.68083 15.0356 3.69181 13.0246L6.02481 10.6916C6.3177 10.3987 6.79258 10.3987 7.08547 10.6916zM13.025 3.69149C15.0367 1.68088 18.2975 1.68066 20.3085 3.69164 22.3191 5.70341 22.3195 8.96432 20.3085 10.9753L17.9755 13.3083C17.6826 13.6012 17.2077 13.6012 16.9148 13.3083 16.6219 13.0154 16.6219 12.5405 16.9148 12.2476L19.2478 9.91464C20.6728 8.48962 20.6731 6.17837 19.2477 4.75215 17.8227 3.32733 15.5117 3.32711 14.0855 4.7523L11.7525 7.0853C11.4596 7.37819 10.9847 7.37819 10.6918 7.0853 10.3989 6.79241 10.3989 6.31753 10.6918 6.02464L13.025 3.69149z" clip-rule="evenodd"></path>
  <path fill="#000" fill-rule="evenodd" d="M15.6405 8.35968C15.9334 8.65258 15.9334 9.12745 15.6405 9.42034L9.42051 15.6403C9.12762 15.9332 8.65275 15.9332 8.35985 15.6403C8.06696 15.3475 8.06696 14.8726 8.35985 14.5797L14.5799 8.35968C14.8727 8.06679 15.3476 8.06679 15.6405 8.35968Z" clip-rule="evenodd"></path>
</svg>
