<svg xmlns="http://www.w3.org/2000/svg" viewBox="0 0 1592.53 452.44"><defs><style>.cls-1{fill:#006bff;}</style></defs><g id="Layer_2" data-name="Layer 2"><g id="Logo_assets" data-name="Logo assets"><g id="Wordmark"><path class="cls-1" d="M776,265.8c-11.48,17.87-33.67,31.65-64.05,31.65-41.85,0-73.8-22.95-81.45-63.45H819a115.26,115.26,0,0,0,1.35-17.55c0-63-44.11-118.8-112.06-118.8-70.2,0-117.9,51.75-117.9,118.35,0,67.5,48.15,118.35,120.6,118.35,45,0,79.2-20.25,99-50.85h0ZM708.32,134.55c33.75,0,65.7,20.7,72.45,65.25H630.47C636.77,160.65,666,134.55,708.32,134.55Z"/><path class="cls-1" d="M532.79,0h39.15V328.5H532.79Z"/><path class="cls-1" d="M1038.21,190.35V328.5H999.06V192.6c0-36.9-21.15-57.6-55.8-57.6-36,0-65.25,21.15-65.25,74.25V328.5H838.86v-225H878v32.4c16.65-26.55,41.4-38.25,72.9-38.25C1003.56,97.65,1038.21,132.75,1038.21,190.35Z"/><path class="cls-1" d="M1293.25,0V328.5h-39.16V289.8c-18,27.45-46.8,44.55-85,44.55-62.55,0-113.85-51.75-113.85-118.35S1106.49,97.65,1169,97.65c38.25,0,67,17.1,85,44.55V0Zm-39.16,216c0-45.9-34.65-80.55-80.1-80.55-45,0-79.65,34.65-79.65,80.55S1129,296.55,1174,296.55C1219.44,296.55,1254.09,261.9,1254.09,216Z"/><path class="cls-1" d="M1324.8,0H1364V328.5H1324.8Z"/><path class="cls-1" d="M502.16,103.5v225H463V289.8c-18,27.45-46.8,44.55-85.05,44.55-62.55,0-113.85-51.75-113.85-118.35S315.41,97.65,378,97.65c38.25,0,67.05,17.1,85.05,44.55V103.5ZM463,216c0-45.9-34.65-80.55-80.1-80.55-45,0-79.65,34.65-79.65,80.55s34.65,80.55,79.65,80.55C428.36,296.55,463,261.9,463,216Z"/><path class="cls-1" d="M206,285.25a121.84,121.84,0,1,1,35.23-208.4A120.09,120.09,0,0,1,259.82,96l33.87-24.78A163.75,163.75,0,0,0,2.31,143.64c-15.06,89.05,45.15,173.75,134.21,188.81a164.91,164.91,0,0,0,27.36,2.29,162.74,162.74,0,0,0,56.74-10.14,164.87,164.87,0,0,0,43.18-24l-22.54-35.7A123.09,123.09,0,0,1,206,285.25Z"/><path class="cls-1" d="M1552.92,103.5V231.19c0,41.3-24,67.43-60.69,67.43S1429,272.49,1429,231.19V103.5H1389.4V227.4c0,64.9,40.46,107,102.83,107,53.94,0,62.37-34.13,62.37-35V345.4c0,45.51-19.81,71.22-61.1,71.22-31.08,0-56.76-22.92-60.6-52.57l-35.4,12.36a98.43,98.43,0,0,0,96,76c64,0,99-42.14,99-107V103.5Z"/></g></g></g></svg>